<svg width="512" height="512" viewBox="0 0 512 512" fill="none" xmlns="http://www.w3.org/2000/svg">
<rect width="512" height="512" rx="256" fill="black"/>
<path d="M47.4194 157.141C44.1785 161.033 37.0087 178.23 33.0762 191.546C19.4534 237.666 20.0462 286.171 34.7415 327.691C41.9994 348.192 47.9044 359.741 61.4482 379.919C100.421 437.98 160.629 473.446 232.199 480.502C259.648 483.207 301.492 479.014 305.099 473.196C306.847 470.378 301.188 465.637 286.992 458.033C226.776 425.766 165.77 370.018 124.588 309.621C94.7929 265.925 75.7375 224.276 59.6786 167.746C56.8204 157.684 55.2503 154.767 52.6939 154.767C50.8812 154.767 48.5081 155.836 47.4194 157.141Z" fill="#288348"/>
<path fill-rule="evenodd" clip-rule="evenodd" d="M142.375 146.925C123.616 148.591 98.1792 153.269 94.3743 155.754C88.4423 159.628 89.0441 168.796 96.6612 190.604C128.668 282.234 190.305 361.258 271.386 414.611C308.094 438.766 313.597 436.779 332.636 392.509C351.684 348.216 359.73 314.681 359.743 279.54C359.752 256.16 356.24 239.144 347.662 221.005C338.322 201.254 316.27 179.854 293.603 168.548C261.994 152.779 235.873 147.51 185.491 146.742C166.223 146.448 146.821 146.531 142.375 146.925ZM282.501 207.351C295.38 213.789 305.983 224.251 312.382 236.838C316.974 245.873 317.527 248.795 317.524 263.97C317.518 278.906 316.913 282.204 312.56 291.049C306.667 303.018 292.865 316.465 281.094 321.699C269.324 326.935 246.501 328.081 234.316 324.048C207.886 315.301 191.933 293.079 191.825 264.865C191.723 237.636 207.163 215.278 233.32 204.784C246.485 199.503 269.166 200.686 282.501 207.351Z" fill="#F5F5F5"/>
<path d="M232.817 31.2609C178.924 35.8331 130.304 58.5439 89.1555 98.3651C78.9604 108.231 72.3116 116.079 72.3116 118.247C72.3116 126.607 79.6251 127.973 99.2589 123.279C145.98 112.112 220.389 112.989 266.14 125.25C342.11 145.609 390.291 205.597 390.291 279.828C390.291 324.916 372.356 385.438 344.593 434.04C338.498 444.708 335.841 451.398 335.699 456.418C335.507 463.267 335.756 463.604 341.464 464.15C348.558 464.828 369.615 454.656 390.278 440.573C408.146 428.392 437.856 398.848 449.074 382.11C476.102 341.775 487.996 303.333 487.845 256.809C487.757 229.269 485.434 214.442 477.061 187.938C455.543 119.839 401.055 65.81 330.038 42.1525C301.45 32.6304 264.919 28.538 232.817 31.2609Z" fill="#288348"/>
</svg>
